{
  "accessors": [
    {
      "bufferView": 2,
      "componentType": 5126,
      "count": 533,
      "max": [
        208.77279663085938,
        154.80580139160156,
        234.36929321289063
      ],
      "min": [
        62.78999328613281,
        89.69880676269531,
        5.954399108886719
      ],
      "type": "VEC3"
    },
    {
      "bufferView": 2,
      "byteOffset": 6396,
      "componentType": 5126,
      "count": 533,
      "max": [
        0.9994142055511475,
        0.9999396800994873,
        0.9999010562896729
      ],
      "min": [
        -0.9963476061820984,
        -0.9996898770332336,
        -0.9972222447395325
      ],
      "type": "VEC3"
    },
    {
      "bufferView": 1,
      "componentType": 5126,
      "count": 533,
      "max": [
        0.9728000164031982,
        0.9922999739646912
      ],
      "min": [
        0.008200000040233135,
        0.006300000008195639
      ],
      "type": "VEC2"
    },
    {
      "bufferView": 0,
      "componentType": 5125,
      "count": 777,
      "type": "SCALAR"
    },
    {
      "bufferView": 2,
      "byteOffset": 12792,
      "componentType": 5126,
      "count": 6182,
      "max": [
        220.01980590820313,
        251.97421264648438,
        242.5388946533203
      ],
      "min": [
        0.0,
        80.12030029296875,
        0.0
      ],
      "type": "VEC3"
    },
    {
      "bufferView": 2,
      "byteOffset": 86976,
      "componentType": 5126,
      "count": 6182,
      "max": [
        1.0,
        0.999670684337616,
        0.9999690055847168
      ],
      "min": [
        -0.9998301863670349,
        -0.9997336268424988,
        -0.9999693632125854
      ],
      "type": "VEC3"
    },
    {
      "bufferView": 1,
      "byteOffset": 4264,
      "componentType": 5126,
      "count": 6182,
      "max": [
        1.5542999505996704,
        0.9944999814033508
      ],
      "min": [
        0.006099999882280827,
        0.006099999882280827
      ],
      "type": "VEC2"
    },
    {
      "bufferView": 0,
      "byteOffset": 3108,
      "componentType": 5125,
      "count": 23706,
      "type": "SCALAR"
    },
    {
      "bufferView": 2,
      "byteOffset": 161160,
      "componentType": 5126,
      "count": 4685,
      "max": [
        220.00970458984375,
        155.58770751953125,
        242.5388946533203
      ],
      "min": [
        62.427894592285156,
        87.73300170898438,
        0.013799667358398438
      ],
      "type": "VEC3"
    },
    {
      "bufferView": 2,
      "byteOffset": 217380,
      "componentType": 5126,
      "count": 4685,
      "max": [
        0.9999836683273315,
        0.9999396800994873,
        0.9997573494911194
      ],
      "min": [
        -0.9999948740005493,
        -0.9996898770332336,
        -0.9999454021453857
      ],
      "type": "VEC3"
    },
    {
      "bufferView": 1,
      "byteOffset": 53720,
      "componentType": 5126,
      "count": 4685,
      "max": [
        1.5503000020980835,
        0.9944999814033508
      ],
      "min": [
        0.007799999788403511,
        0.004600000102072954
      ],
      "type": "VEC2"
    },
    {
      "bufferView": 0,
      "byteOffset": 97932,
      "componentType": 5125,
      "count": 10050,
      "type": "SCALAR"
    },
    {
      "bufferView": 2,
      "byteOffset": 273600,
      "componentType": 5126,
      "count": 5340,
      "max": [
        219.75909423828125,
        157.0915985107422,
        242.5388946533203
      ],
      "min": [
        62.427894592285156,
        87.73300170898438,
        0.0
      ],
      "type": "VEC3"
    },
    {
      "bufferView": 2,
      "byteOffset": 337680,
      "componentType": 5126,
      "count": 5340,
      "max": [
        0.9997647404670715,
        0.9998499751091003,
        0.9999067783355713
      ],
      "min": [
        -0.9997683167457581,
        -0.999501645565033,
        -0.9999891519546509
      ],
      "type": "VEC3"
    },
    {
      "bufferView": 1,
      "byteOffset": 91200,
      "componentType": 5126,
      "count": 5340,
      "max": [
        1.5454000234603882,
        0.9951000213623047
      ],
      "min": [
        0.007799999788403511,
        0.004600000102072954
      ],
      "type": "VEC2"
    },
    {
      "bufferView": 0,
      "byteOffset": 138132,
      "componentType": 5125,
      "count": 12969,
      "type": "SCALAR"
    },
    {
      "bufferView": 2,
      "byteOffset": 401760,
      "componentType": 5126,
      "count": 5175,
      "max": [
        219.90719604492188,
        156.06689453125,
        242.5388946533203
      ],
      "min": [
        62.427894592285156,
        88.59280395507813,
        0.30900001525878906
      ],
      "type": "VEC3"
    },
    {
      "bufferView": 2,
      "byteOffset": 463860,
      "componentType": 5126,
      "count": 5175,
      "max": [
        0.9999836683273315,
        0.9999396800994873,
        0.9999067783355713
      ],
      "min": [
        -0.9999948740005493,
        -0.9996898770332336,
        -0.9998553991317749
      ],
      "type": "VEC3"
    },
    {
      "bufferView": 1,
      "byteOffset": 133920,
      "componentType": 5126,
      "count": 5175,
      "max": [
        1.5463000535964966,
        0.9944999814033508
      ],
      "min": [
        0.0071000000461936,
        0.006300000008195639
      ],
      "type": "VEC2"
    },
    {
      "bufferView": 0,
      "byteOffset": 190008,
      "componentType": 5125,
      "count": 14229,
      "type": "SCALAR"
    },
    {
      "bufferView": 2,
      "byteOffset": 525960,
      "componentType": 5126,
      "count": 159,
      "max": [
        207.51519775390625,
        146.92230224609375,
        197.27989196777344
      ],
      "min": [
        81.3125,
        92.89640045166016,
        6.3535003662109375
      ],
      "type": "VEC3"
    },
    {
      "bufferView": 2,
      "byteOffset": 527868,
      "componentType": 5126,
      "count": 159,
      "max": [
        0.99769127368927,
        0.9142991304397583,
        0.9995562434196472
      ],
      "min": [
        -0.9944584965705872,
        -0.9997386336326599,
        -0.9990540742874146
      ],
      "type": "VEC3"
    },
    {
      "bufferView": 1,
      "byteOffset": 175320,
      "componentType": 5126,
      "count": 159,
      "max": [
        0.9884999990463257,
        0.7583000063896179
      ],
      "min": [
        0.009600000455975533,
        0.010200000368058681
      ],
      "type": "VEC2"
    },
    {
      "bufferView": 0,
      "byteOffset": 246924,
      "componentType": 5125,
      "count": 489,
      "type": "SCALAR"
    },
    {
      "bufferView": 2,
      "byteOffset": 529776,
      "componentType": 5126,
      "count": 720,
      "max": [
        85.74879455566406,
        154.91700744628906,
        137.83030700683594
      ],
      "min": [
        32.98899841308594,
        0.0,
        73.47140502929688
      ],
      "type": "VEC3"
    },
    {
      "bufferView": 2,
      "byteOffset": 538416,
      "componentType": 5126,
      "count": 720,
      "max": [
        0.9997407793998718,
        0.9991403818130493,
        0.9973538517951965
      ],
      "min": [
        -0.9966360926628113,
        -0.9865195751190186,
        -0.9975468516349792
      ],
      "type": "VEC3"
    },
    {
      "bufferView": 1,
      "byteOffset": 176592,
      "componentType": 5126,
      "count": 720,
      "max": [
        1.9666999578475952,
        0.9790999889373779
      ],
      "min": [
        0.0272000003606081,
        0.03720000013709068
      ],
      "type": "VEC2"
    },
    {
      "bufferView": 0,
      "byteOffset": 248880,
      "componentType": 5125,
      "count": 2724,
      "type": "SCALAR"
    }
  ],
  "asset": {
    "extras": {
      "author": "dic1405 (https://sketchfab.com/dic1405)",
      "license": "CC-BY-4.0 (http://creativecommons.org/licenses/by/4.0/)",
      "source": "https://sketchfab.com/3d-models/king-varian-c649285dc6864cd18f99ae0d78f216ea",
      "title": "King Varian"
    },
    "generator": "Sketchfab-15.25.0",
    "version": "2.0"
  },
  "bufferViews": [
    {
      "buffer": 0,
      "byteLength": 259776,
      "name": "floatBufferViews",
      "target": 34963
    },
    {
      "buffer": 0,
      "byteLength": 182352,
      "byteOffset": 259776,
      "byteStride": 8,
      "name": "floatBufferViews",
      "target": 34962
    },
    {
      "buffer": 0,
      "byteLength": 547056,
      "byteOffset": 442128,
      "byteStride": 12,
      "name": "floatBufferViews",
      "target": 34962
    }
  ],
  "buffers": [
    {
      "byteLength": 989184,
      "uri": "scene.bin"
    }
  ],
  "extensionsUsed": [
    "KHR_materials_unlit"
  ],
  "images": [
    {
      "uri": "textures/02___Default_baseColor.png"
    },
    {
      "uri": "textures/07___Defaultgfdgdfg_baseColor.png"
    }
  ],
  "materials": [
    {
      "alphaMode": "BLEND",
      "extensions": {
        "KHR_materials_unlit": {}
      },
      "name": "02___Default",
      "pbrMetallicRoughness": {
        "baseColorTexture": {
          "index": 0
        },
        "metallicFactor": 0.0
      }
    },
    {
      "doubleSided": true,
      "extensions": {
        "KHR_materials_unlit": {}
      },
      "name": "07___Defaultgfdgdfg",
      "pbrMetallicRoughness": {
        "baseColorTexture": {
          "index": 1
        },
        "metallicFactor": 0.0
      }
    }
  ],
  "meshes": [
    {
      "name": "Object_0",
      "primitives": [
        {
          "attributes": {
            "NORMAL": 1,
            "POSITION": 0,
            "TEXCOORD_0": 2
          },
          "indices": 3,
          "material": 0,
          "mode": 4
        }
      ]
    },
    {
      "name": "Object_1",
      "primitives": [
        {
          "attributes": {
            "NORMAL": 5,
            "POSITION": 4,
            "TEXCOORD_0": 6
          },
          "indices": 7,
          "material": 0,
          "mode": 4
        }
      ]
    },
    {
      "name": "Object_2",
      "primitives": [
        {
          "attributes": {
            "NORMAL": 9,
            "POSITION": 8,
            "TEXCOORD_0": 10
          },
          "indices": 11,
          "material": 0,
          "mode": 4
        }
      ]
    },
    {
      "name": "Object_3",
      "primitives": [
        {
          "attributes": {
            "NORMAL": 13,
            "POSITION": 12,
            "TEXCOORD_0": 14
          },
          "indices": 15,
          "material": 0,
          "mode": 4
        }
      ]
    },
    {
      "name": "Object_4",
      "primitives": [
        {
          "attributes": {
            "NORMAL": 17,
            "POSITION": 16,
            "TEXCOORD_0": 18
          },
          "indices": 19,
          "material": 0,
          "mode": 4
        }
      ]
    },
    {
      "name": "Object_5",
      "primitives": [
        {
          "attributes": {
            "NORMAL": 21,
            "POSITION": 20,
            "TEXCOORD_0": 22
          },
          "indices": 23,
          "material": 0,
          "mode": 4
        }
      ]
    },
    {
      "name": "Object_6",
      "primitives": [
        {
          "attributes": {
            "NORMAL": 25,
            "POSITION": 24,
            "TEXCOORD_0": 26
          },
          "indices": 27,
          "material": 1,
          "mode": 4
        }
      ]
    }
  ],
  "nodes": [
    {
      "children": [
        1
      ],
      "matrix": [
        1.0,
        0.0,
        0.0,
        0.0,
        0.0,
        2.220446049250313e-16,
        -1.0,
        0.0,
        0.0,
        1.0,
        2.220446049250313e-16,
        0.0,
        0.0,
        0.0,
        0.0,
        1.0
      ],
      "name": "Sketchfab_model"
    },
    {
      "children": [
        2
      ],
      "matrix": [
        1.0,
        0.0,
        0.0,
        0.0,
        0.0,
        1.0,
        0.0,
        0.0,
        0.0,
        0.0,
        1.0,
        0.0,
        -141.19259643554688,
        -120.89710235595703,
        -25.945499420166016,
        1.0
      ],
      "name": "KingVarian.obj.cleaner.gles"
    },
    {
      "children": [
        3,
        4,
        5,
        6,
        7,
        8,
        9
      ],
      "name": "Object_2"
    },
    {
      "mesh": 0,
      "name": "Object_3"
    },
    {
      "mesh": 1,
      "name": "Object_4"
    },
    {
      "mesh": 2,
      "name": "Object_5"
    },
    {
      "mesh": 3,
      "name": "Object_6"
    },
    {
      "mesh": 4,
      "name": "Object_7"
    },
    {
      "mesh": 5,
      "name": "Object_8"
    },
    {
      "mesh": 6,
      "name": "Object_9"
    }
  ],
  "samplers": [
    {
      "magFilter": 9729,
      "minFilter": 9987,
      "wrapS": 10497,
      "wrapT": 10497
    }
  ],
  "scene": 0,
  "scenes": [
    {
      "name": "Sketchfab_Scene",
      "nodes": [
        0
      ]
    }
  ],
  "textures": [
    {
      "sampler": 0,
      "source": 0
    },
    {
      "sampler": 0,
      "source": 1
    }
  ]
}
